<svg width="400" height="800" viewBox="0 0 400 800" xmlns="http://www.w3.org/2000/svg">
  <rect width="100%" height="100%" fill="#F8F5F0" />

  <g id="districts" opacity="0.8">
    <path d="M250 350 L380 320 L400 450 L400 580 L300 620 L250 480 Z" fill="#A491D3" stroke="#333" stroke-width="1.5" />
    <path d="M150 550 L280 610 L250 750 L100 720 L130 650 Z" fill="#E6BAA1" stroke="#333" stroke-width="1.5" />
  </g>

  <clipPath id="landClip">
    <path d="M-10,0 C50,50 0,150 20,200 L50,450 C80,550 50,650 80,810 L410,810 L410,0 Z" />
  </clipPath>

  <g id="grid" clip-path="url(#landClip)" stroke="#555" stroke-width="0.7">
    <path d="M25 0 L15 800" />
    <path d="M55 0 L40 800" />
    <path d="M85 0 L70 800" />
    <path d="M115 0 L100 800" />
    <path d="M145 0 L130 800" />
    <path d="M175 0 L160 800" />
    <path d="M205 0 L190 800" />
    <path d="M235 0 L220 800" />
    <path d="M265 0 L250 800" />
    <path d="M295 0 L280 800" />
    <path d="M325 0 L310 800" />
    <path d="M355 0 L340 800" />
    <path d="M385 0 L370 800" />

    <path d="M0 20 L400 5" />
    <path d="M0 50 L400 40" />
    <path d="M0 80 L400 75" />
    <path d="M0 110 L400 110" />
    <path d="M0 140 L400 145" />
    <path d="M0 170 L400 180" />
    <path d="M0 200 L400 210" />
    <path d="M0 230 L400 235" />
    <path d="M0 260 L400 260" />
    <path d="M0 290 L400 280" />
    <path d="M0 320 L400 310" />
    <path d="M0 350 L400 345" />
    <path d="M0 380 L400 380" />
    <path d="M0 410 L400 420" />
    <path d="M0 440 L400 450" />
    <path d="M0 470 L400 475" />
    <path d="M0 500 L400 500" />
    <path d="M0 530 L400 520" />
    <path d="M0 560 L400 555" />
    <path d="M0 590 L400 590" />
    <path d="M0 620 L400 625" />
    <path d="M0 650 L400 660" />
    <path d="M0 680 L400 690" />
    <path d="M0 710 L400 715" />
    <path d="M0 740 L400 740" />
    <path d="M0 770 L400 765" />
  </g>
</svg>